<?xml version="1.0" standalone="no"?><!DOCTYPE svg PUBLIC "-//W3C//DTD SVG 1.1//EN" "http://www.w3.org/Graphics/SVG/1.1/DTD/svg11.dtd"><svg t="1482206336137" class="icon" style="" viewBox="0 0 1024 1024" version="1.1" xmlns="http://www.w3.org/2000/svg" p-id="2089" xmlns:xlink="http://www.w3.org/1999/xlink" width="128" height="128"><defs><style type="text/css"></style></defs><path d="M512 0C230.4 0 0 230.4 0 512s230.4 512 512 512 512-230.4 512-512S793.6 0 512 0z m317.44 522.24c0 30.72-20.48 51.2-51.2 51.2h-204.8v204.8c0 30.72-20.48 51.2-51.2 51.2h-20.48c-30.72 0-51.2-20.48-51.2-51.2v-204.8h-204.8c-30.72 0-51.2-20.48-51.2-51.2v-20.48c0-30.72 20.48-51.2 51.2-51.2h204.8v-204.8c0-30.72 20.48-51.2 51.2-51.2h25.6c30.72 0 51.2 20.48 51.2 51.2v204.8h204.8c30.72 0 51.2 20.48 51.2 51.2v20.48z" fill="#8a8a8a" p-id="2090"></path></svg>