<?xml version="1.0" standalone="no"?><!DOCTYPE svg PUBLIC "-//W3C//DTD SVG 1.1//EN" "http://www.w3.org/Graphics/SVG/1.1/DTD/svg11.dtd"><svg t="1481706243448" class="icon" style="" viewBox="0 0 1025 1024" version="1.1" xmlns="http://www.w3.org/2000/svg" p-id="8031" xmlns:xlink="http://www.w3.org/1999/xlink" width="48.046875" height="48"><defs><style type="text/css"></style></defs><path d="M339.601 264.064h277.691c7.297 0 13.21-5.915 13.21-13.211s-5.914-13.211-13.21-13.211H339.601c-7.297 0-13.212 5.915-13.212 13.211s5.915 13.211 13.212 13.211zM91.248 393.242h277.689c7.297 0 13.212-5.915 13.212-13.212s-5.915-13.21-13.212-13.21H91.248c-7.297 0-13.211 5.914-13.211 13.21s5.915 13.212 13.211 13.212zM165.795 529.175c0 7.297 5.915 13.213 13.211 13.213h277.689c7.297 0 13.211-5.917 13.211-13.213s-5.915-13.21-13.211-13.21H179.006c-7.297 0-13.211 5.914-13.211 13.21zM324.718 682.725H75.213c-7.297 0-13.211 5.914-13.211 13.21s5.915 13.212 13.211 13.212h249.505c7.297 0 13.212-5.915 13.212-13.212s-5.915-13.21-13.212-13.21zM773.663 346.899c39.851 0 72.159-32.311 72.159-72.164s-32.309-72.162-72.159-72.162c-39.861 0-72.174 32.311-72.174 72.162-0.002 39.853 32.311 72.164 72.174 72.164z" p-id="8032" fill="#d4237a"></path><path d="M892.363 326.118c-41.436 58.042-96.923 64.762-156.63 29.317-4.064-2.41-22.098-12.345-26.09-14.717-96.052-57.021-191.991-34.659-256.33 55.442-27.341 38.322 35.895 74.647 62.929 36.771 33.243-46.552 75.513-60.023 121.743-45.277-23.671 41.088-44.366 81.926-73.568 139.947-29.21 58.021-93.701 104.356-155.668 68.117-44.713-26.135-85.035 38.101-40.457 64.154 84.6 49.444 183.795 19.083 234.434-45.189a39.743 39.743 0 0 0 5.649 2.498c41.368 14.413 95.596 52.784 112.119 66.384 16.518 13.599 44.9 82.878 61.754 117.687 20.446 42.237 86.477 11.474 65.954-30.942-19.104-39.494-51.173-118.316-76.184-138.259-20.064-15.995-59.017-45.761-92.055-62.648 22.352-43.294 45.625-86.123 70.124-128.21 78.095 23.928 152.323-4.258 205.19-78.312 27.363-38.317-35.858-74.64-62.912-36.761z" p-id="8033" fill="#d4237a"></path></svg>