<?xml version="1.0" standalone="no"?><!DOCTYPE svg PUBLIC "-//W3C//DTD SVG 1.1//EN" "http://www.w3.org/Graphics/SVG/1.1/DTD/svg11.dtd"><svg t="1481337994785" class="icon" style="" viewBox="0 0 1024 1024" version="1.1" xmlns="http://www.w3.org/2000/svg" p-id="1637" xmlns:xlink="http://www.w3.org/1999/xlink" width="48" height="48"><defs><style type="text/css"></style></defs><path d="M480 64C214.912 64 0 278.912 0 544 0 809.152 214.912 1024 480 1024c265.152 0 480-214.848 480-480C960 278.912 745.152 64 480 64zM480 960C250.624 960 64 773.376 64 544S250.624 128 480 128 896 314.624 896 544 709.376 960 480 960z" p-id="1638" fill="#7184A5"></path><path d="M603.2 622.912c22.656-31.424 36.224-69.76 36.224-111.488 0-106.048-86.016-192-192-192-106.048 0-192 85.952-192 192s85.952 192 192 192c41.216 0 79.104-13.248 110.4-35.328l90.56 90.496C654.656 764.864 662.784 768 670.976 768s16.384-3.136 22.656-9.344c12.48-12.48 12.48-32.768 0-45.248L603.2 622.912zM447.424 639.424c-70.592 0-128-57.408-128-128 0-70.592 57.408-128 128-128s128 57.408 128 128C575.424 582.016 518.016 639.424 447.424 639.424z" p-id="1639" fill="#7184A5"></path></svg>