<?xml version="1.0" standalone="no"?><!DOCTYPE svg PUBLIC "-//W3C//DTD SVG 1.1//EN" "http://www.w3.org/Graphics/SVG/1.1/DTD/svg11.dtd"><svg t="1481703884519" class="icon" style="" viewBox="0 0 1024 1024" version="1.1" xmlns="http://www.w3.org/2000/svg" p-id="8348" xmlns:xlink="http://www.w3.org/1999/xlink" width="48" height="48"><defs><style type="text/css"></style></defs><path d="M513.824 987.104c-258.784 0-469.328-210.528-469.328-469.328S255.04 48.464 513.824 48.464c258.784 0 469.328 210.544 469.328 469.328S772.608 987.104 513.824 987.104zM513.824 80.464c-241.136 0-437.328 196.192-437.328 437.328 0 241.136 196.192 437.328 437.328 437.328s437.328-196.192 437.328-437.328C951.152 276.656 754.976 80.464 513.824 80.464z" p-id="8349" fill="#7184A5"></path><path d="M720 768 560 768c-8.848 0-16-7.152-16-16l0-80-48 0 0 80c0 8.848-7.168 16-16 16L320 768c-8.832 0-16-7.152-16-16L304 560l-47.776 0c-6.256 0-11.936-3.648-14.544-9.328-2.608-5.664-1.664-12.352 2.4-17.104l265.376-308.704c6.08-7.072 18.208-7.072 24.272 0l265.376 308.72c4.064 4.736 5.008 11.424 2.4 17.088C798.912 556.352 793.216 560 786.976 560L736 560l0 192C736 760.848 728.848 768 720 768zM576 736l128 0L704 544c0-8.848 7.152-16 16-16l32.112 0L521.6 259.824 291.072 528 320 528c8.832 0 16 7.152 16 16l0 192 128 0 0-80c0-8.848 7.168-16 16-16l80 0c8.848 0 16 7.152 16 16L576 736z" p-id="8350" fill="#7184A5"></path></svg>