<?xml version="1.0" standalone="no"?><!DOCTYPE svg PUBLIC "-//W3C//DTD SVG 1.1//EN" "http://www.w3.org/Graphics/SVG/1.1/DTD/svg11.dtd"><svg t="1481524153083" class="icon" style="" viewBox="0 0 1024 1024" version="1.1" xmlns="http://www.w3.org/2000/svg" p-id="1531" xmlns:xlink="http://www.w3.org/1999/xlink" width="48" height="48"><defs><style type="text/css"></style></defs><path d="M890.907773 429.535847c-20.659529-26.050306-51.582819-40.9916-84.839247-40.9916l-189.338253 0c10.341532-28.829606 17.180288-60.165288 19.614733-90.478687 3.78521-47.146786-3.461845-89.020476-20.958334-121.094986-21.525246-39.460734-58.178027-64.073294-105.994056-71.178109-21.662369-3.219321-40.291658 0.944512-55.378262 12.372795-30.493501 23.101137-36.09201 67.064418-42.574654 117.970832-5.182023 40.692794-11.054777 86.816275-30.79026 119.877251-13.170974 22.064528-38.807864 51.3976-109.091604 51.3976l-73.346495 0c-48.841382 0-88.578408 39.720653-88.578408 88.544639l0 334.753133c0 48.823985 39.736003 88.545662 88.578408 88.545662l534.341844 0c24.323988 0 48.214095-8.320503 67.271126-23.428595 19.061125-15.111163 32.608675-36.473703 38.147832-60.151985l73.517387-314.269613C919.056879 489.055428 911.555022 455.56978 890.907773 429.535847zM168.673607 830.709739 168.673607 495.956605c0-16.268522 13.250792-29.503964 29.53671-29.503964l62.23339 0L260.443707 860.214726l-62.23339 0C181.924399 860.214726 168.673607 846.979284 168.673607 830.709739zM854.000188 507.956917l-73.517387 314.269613c-5.232165 22.366404-24.942065 37.988196-47.930639 37.988196l-413.06778 0L319.484382 462.169081c49.877991-9.519818 87.401606-34.919301 111.859647-75.893504 26.050306-43.640939 32.750915-96.257298 38.662555-142.680607 2.670829-20.977777 5.194302-40.791032 9.201569-55.990199 4.297886-16.303314 8.744151-21.080108 10.457166-22.37766 1.959631-1.484817 5.678326-1.833765 11.048637-1.034563 29.617551 4.400217 50.172703 17.829064 62.841234 41.051975 25.988908 47.64309 14.508435 128.053468-10.264784 182.859701-5.934153 13.126972-4.827959 28.16855 2.959402 40.234353 7.77815 12.0525 21.0095 19.247366 35.396161 19.247366l214.423581 0c15.124466 0 29.185716 6.792707 38.579667 18.637476C854.02884 478.050794 857.437473 493.263264 854.000188 507.956917z" p-id="1532" fill="#7184A5"></path></svg>